<svg fill="none" height="24" viewBox="0 0 135 24" width="135" xmlns="http://www.w3.org/2000/svg"><g fill="#fff"><path d="m2.24177.312c-.59402.001727-1.16322.238467-1.583263.658507-.42004.420043-.65678018.989243-.658507 1.583263v21.13593h5.97915v-9.1809h8.47725c.5941-.0017 1.1633-.2385 1.5833-.6585s.6568-.9893.6585-1.5833v-2.53847h-10.71905v-3.51047c.00057-.29735.11887-.58236.32903-.79272.21015-.21036.49505-.32894.7924-.3298h10.15072c.5944-.00144 1.164-.23821 1.5843-.65851.4203-.42031.6571-.98995.6585-1.58436v-2.54067z"/><path d="m29.1768 18.8822c-.2977-.0006-.5832-.1188-.7942-.3288-.2111-.21-.3306-.4949-.3326-.7927v-15.18947c-.0018-.59721-.2398-1.16946-.6621-1.591753-.4222-.422291-.9945-.660296-1.5917-.662022h-3.7603v21.119545c.0017.5972.2397 1.1695.662 1.5918s.9946.6603 1.5918.662h12.3019c.5972-.0017 1.1695-.2397 1.5918-.662.4222-.4223.6603-.9946.662-1.5918v-2.5548z"/><path d="m47.4645 23.6897h-5.9945v-12.1972c.0015-.5957.2387-1.1665.6598-1.58783.4211-.4213.9918-.65876 1.5875-.66049h3.7472z"/><path d="m45.2162 7.06132h-3.7462v-4.49555c.0018-.59576.2392-1.16662.6605-1.587891.4212-.421268.9921-.658698 1.5879-.660424h1.4988c.5956.002014 1.1662.239571 1.5872.660808.4211.421237.6583.991937.6601 1.587507v2.24723c-.0018.59576-.2392 1.16662-.6605 1.58789-.4212.42127-.9921.6587-1.5878.66043z"/><path d="m85.7982 19.8945h-4.1257c-.5723-.0017-1.1207-.2298-1.5254-.6345s-.6328-.9531-.6346-1.5254v-3.9272h6.253c.7932.0163 1.5487.3418 2.1055.907.5568.5653.8708 1.3256.8752 2.119s-.3011 1.5571-.8516 2.1285-1.3023.9052-2.0953.9304zm-6.2868-15.78076h5.6203c.3603-.00897.7187.05399 1.0544.18519.3356.1312.6417.32802.9004.57893s.4648.55089.6062.88238c.1414.3315.2152.68786.2173 1.04824.002.36038-.0679.71755-.2055 1.05061-.1376.33307-.3403.63535-.5962.88916-.2558.25382-.5597.45406-.8938.58904-.3342.13498-.6919.20197-1.0523.19706h-3.709c-.5122.00088-1.004-.20102-1.3678-.56159-.3639-.36057-.5702-.8505-.574-1.36273zm12.6947 8.05946c-.1287-.1189-.4942-.4069-.5935-.4789.559-.618.988-1.3421 1.2616-2.12914.2736-.78708.3862-1.62112.3311-2.45257 0-4.27628-2.7588-6.795135-7.0253-6.795135h-9.2081c-.5948.000574-1.1651.236806-1.5861.65697-.421.420165-.6583.990025-.6601 1.584805v18.88977c.0018.594.2385 1.1632.6585 1.5833.4201.42.9893.6568 1.5833.6585h10.2631c4.262 0 6.8442-2.4861 6.8442-6.757.0282-.8792-.1234-1.7549-.4455-2.5735s-.8078-1.5628-1.4276-2.1871"/><path d="m115.066.309818h-2.643c-.585.001727-1.146.235134-1.56.649242-.415.41411-.648.97526-.65 1.56089v13.89685c0 1.993-1.371 3.3195-3.737 3.3195h-1.091c-2.366 0-3.736-1.3265-3.736-3.3195v-16.106982h-2.6434c-.5856.001727-1.1468.235134-1.5609.649242-.4141.41411-.6475.97526-.6492 1.56089v14.62335c0 4.1159 2.8308 6.8562 7.7115 6.8562h2.822c4.886 0 7.717-2.7403 7.717-6.8562z"/><path d="m124.464 5.06499h7.554c.594-.00172 1.163-.23846 1.583-.6585s.657-.98925.659-1.58327v-2.539583h-9.796c-1.883.018685-3.681.779503-5.006 2.117083-1.324 1.33757-2.067 3.14379-2.067 5.02604.008 1.84098.747 3.60344 2.054 4.90004 1.307 1.2967 3.075 2.0215 4.916 2.0151h3.089c.601 0 1.177.2386 1.602.6633s.663 1.0007.663 1.6014c0 .6006-.238 1.1766-.663 1.6013-.425.4248-1.001.6634-1.602.6634h-9.782v2.5428c.002.594.239 1.1632.659 1.5833.42.42.989.6568 1.583.6585h7.588c1.874-.0312 3.66-.7974 4.974-2.1334s2.051-3.1348 2.051-5.0087c-.008-1.8316-.739-3.586-2.034-4.8811-1.295-1.295-3.05-2.02571-4.881-2.03289h-3.138c-.6 0-1.177-.2386-1.601-.66331-.425-.42471-.664-1.00074-.664-1.60137s.239-1.17666.664-1.60137c.424-.42471 1.001-.66331 1.601-.66331"/><path d="m70.18 19.5269-4.0614-5.5897-3.5017 4.8141 2.9803 4.1017c.4362.5962 1.0905.9956 1.8201 1.1111.7297.1155 1.4754-.0624 2.0743-.4948l.0666-.049c.5962-.4362.9956-1.0906 1.1111-1.8202s-.0624-1.4753-.4948-2.0743"/><path d="m64.7103 11.9998-3.4908-4.81412-4.3941-6.03915c-.436-.596437-1.0904-.996056-1.8201-1.1115448-.7297-.1154889-1.4755.0625413-2.0744.4951918l-.0665.047999c-.5965.436014-.9961 1.090364-1.1116 1.820094-.1155.72972.0626 1.4755.4952 2.07437l5.4599 7.51186-5.4544 7.5271c-.4361.5995-.6167 1.3473-.5024 2.0798.1143.7324.5142 1.3896 1.1122 1.8278l.0665.0491c.599.4323 1.3447.6102 2.0743.4947.7297-.1155 1.384-.5149 1.8202-1.1111z"/><path d="m69.5626.578176-.0666-.049089c-.5989-.4326513-1.3446-.6106816-2.0744-.4951927-.7297.1154887-1.384.5151077-1.82 1.1115457l-2.9782 4.09846 3.4974 4.8141 4.0592-5.58536c.4323-.5991.6099-1.34489.4942-2.07454-.1156-.72965-.5153-1.3839-1.1116-1.819924z"/></g></svg>